<svg width="33" height="33" viewBox="0 0 33 33" fill="none" xmlns="http://www.w3.org/2000/svg">
<rect x="0.489842" y="0.510498" width="32" height="32" rx="4" fill="#0B253E"/>
<path d="M4.55802 12.5234L7.81219 10.5061L8.38499 11.411L5.69117 12.9841L8.38499 14.5282L7.79143 15.4621L4.55802 13.4531V12.5234Z" fill="#62F1F3"/>
<path d="M13.7008 13.9056C13.7008 14.5199 13.4836 14.9543 13.0492 15.2089C12.6147 15.4635 12.0433 15.5908 11.3349 15.5908H9.4256V9.83785H11.2478C11.9064 9.83785 12.4376 9.95269 12.8416 10.1824C13.2484 10.4093 13.4518 10.7842 13.4518 11.3072C13.4518 11.6337 13.3522 11.9021 13.153 12.1124C12.9537 12.3228 12.7019 12.4666 12.3975 12.5441C12.7656 12.605 13.0741 12.742 13.3231 12.955C13.5749 13.1681 13.7008 13.485 13.7008 13.9056ZM12.0821 11.4442C12.0821 11.22 12.0115 11.0568 11.8704 10.9544C11.7293 10.852 11.5079 10.8008 11.2063 10.8008H10.787V12.1332H11.2478C11.5411 12.1332 11.7528 12.0792 11.8828 11.9713C12.0157 11.8634 12.0821 11.6877 12.0821 11.4442ZM12.2979 13.8516C12.2979 13.5638 12.2149 13.3577 12.0489 13.2331C11.8856 13.1086 11.6518 13.0464 11.3474 13.0464H10.787V14.5987H11.2893C11.5992 14.5987 11.8441 14.5462 12.024 14.441C12.2066 14.3359 12.2979 14.1394 12.2979 13.8516Z" fill="#62F1F3"/>
<path d="M16.2897 14.7938C16.5138 14.7938 16.6909 14.7592 16.821 14.69C16.9538 14.6181 17.0202 14.5143 17.0202 14.3787C17.0202 14.2819 16.9939 14.203 16.9413 14.1422C16.8888 14.0785 16.7905 14.019 16.6466 13.9637C16.5028 13.9056 16.2786 13.835 15.9742 13.752C15.5315 13.633 15.1925 13.4697 14.9573 13.2622C14.7249 13.0547 14.6086 12.7669 14.6086 12.3988C14.6086 12.1332 14.682 11.898 14.8286 11.6932C14.9781 11.4885 15.1967 11.328 15.4844 11.2117C15.7722 11.0955 16.1181 11.0374 16.5221 11.0374C17.2222 11.0374 17.8172 11.2159 18.3069 11.5729L17.7839 12.3449C17.593 12.2287 17.3924 12.1374 17.1821 12.0709C16.9746 12.0045 16.767 11.9713 16.5595 11.9713C16.3464 11.9713 16.1873 12.0004 16.0821 12.0585C15.9798 12.1138 15.9286 12.1982 15.9286 12.3117C15.9286 12.3892 15.9549 12.4542 16.0074 12.5068C16.0628 12.5593 16.161 12.6133 16.3021 12.6686C16.446 12.724 16.6688 12.7946 16.9704 12.8803C17.2886 12.9689 17.5474 13.0671 17.7466 13.175C17.9458 13.2802 18.1008 13.4213 18.2115 13.5984C18.3249 13.7727 18.3816 13.9983 18.3816 14.275C18.3816 14.5849 18.2876 14.8505 18.0994 15.0719C17.914 15.2905 17.6636 15.4552 17.3481 15.5659C17.0327 15.6765 16.6826 15.7319 16.298 15.7319C15.8857 15.7319 15.5149 15.6738 15.1856 15.5576C14.8563 15.4386 14.5727 15.2753 14.3347 15.0678L14.9947 14.3289C15.1773 14.4728 15.3779 14.5863 15.5965 14.6693C15.8151 14.7523 16.0462 14.7938 16.2897 14.7938Z" fill="#62F1F3"/>
<path d="M24.4932 9.2775L24.1653 9.95822L28.3036 12.5151V13.4531L25.0702 15.4621L24.4766 14.5697L27.1746 12.9841L23.6921 10.9461L21.0108 16.5205L19.9855 16.0515L23.4763 8.80847L24.4932 9.2775Z" fill="#62F1F3"/>
<path d="M10.3287 23.7397C10.3287 23.5737 10.3702 23.4201 10.4532 23.279C10.5362 23.1378 10.6483 23.0258 10.7894 22.9428C10.9333 22.857 11.0882 22.8141 11.2543 22.8141C11.4203 22.8141 11.5739 22.857 11.715 22.9428C11.8589 23.0258 11.9723 23.1378 12.0554 23.279C12.1384 23.4201 12.1799 23.5737 12.1799 23.7397C12.1799 23.9057 12.1384 24.0593 12.0554 24.2004C11.9723 24.3416 11.8589 24.4536 11.715 24.5366C11.5739 24.6224 11.4203 24.6653 11.2543 24.6653C11.0882 24.6653 10.9333 24.6224 10.7894 24.5366C10.6483 24.4536 10.5362 24.3416 10.4532 24.2004C10.3702 24.0593 10.3287 23.9057 10.3287 23.7397Z" fill="#62F1F3"/>
<path d="M16.8316 18.2275L18.1433 18.3645V24.5242H16.9811L16.9146 24.0386C16.7818 24.2267 16.613 24.3789 16.4083 24.4951C16.2035 24.6086 15.9655 24.6653 15.6943 24.6653C15.3374 24.6653 15.0371 24.5698 14.7936 24.3789C14.5529 24.1852 14.373 23.9126 14.254 23.5612C14.135 23.207 14.0755 22.7892 14.0755 22.3077C14.0755 21.8567 14.1461 21.454 14.2872 21.0998C14.4311 20.7456 14.6345 20.4689 14.8974 20.2697C15.163 20.0705 15.4743 19.9708 15.8313 19.9708C16.227 19.9708 16.5604 20.1064 16.8316 20.3776V18.2275ZM16.1841 20.9297C15.9461 20.9297 15.7607 21.0417 15.6279 21.2659C15.4951 21.4872 15.4287 21.8373 15.4287 22.316C15.4287 22.8279 15.4868 23.1877 15.603 23.3952C15.722 23.6 15.8908 23.7023 16.1094 23.7023C16.3861 23.7023 16.6269 23.5322 16.8316 23.1918V21.2908C16.7348 21.1718 16.6352 21.0819 16.5328 21.021C16.4304 20.9601 16.3142 20.9297 16.1841 20.9297Z" fill="#62F1F3"/>
<path d="M20.4415 22.702C20.483 23.0479 20.5965 23.3025 20.7819 23.4658C20.9673 23.629 21.2067 23.7106 21.5 23.7106C21.8735 23.7106 22.2499 23.5889 22.629 23.3454L23.1561 24.0593C22.9375 24.2475 22.6788 24.3955 22.3799 24.5034C22.0838 24.6114 21.7559 24.6653 21.3962 24.6653C20.9037 24.6653 20.4858 24.5671 20.1427 24.3706C19.7996 24.1741 19.5408 23.9002 19.3665 23.5488C19.1922 23.1946 19.105 22.7864 19.105 22.3243C19.105 21.8843 19.1894 21.4859 19.3582 21.1289C19.527 20.7719 19.7733 20.4897 20.097 20.2821C20.4208 20.0746 20.8068 19.9708 21.2551 19.9708C21.6729 19.9708 22.0368 20.0608 22.3467 20.2406C22.6594 20.4205 22.9002 20.6806 23.0689 21.021C23.2377 21.3613 23.3221 21.7653 23.3221 22.233C23.3221 22.4129 23.3138 22.5692 23.2972 22.702H20.4415ZM21.2551 20.8508C21.0143 20.8508 20.822 20.938 20.6781 21.1123C20.537 21.2866 20.4526 21.5537 20.4249 21.9134H22.0437C22.0354 21.205 21.7725 20.8508 21.2551 20.8508Z" fill="#62F1F3"/>
<path d="M27.1147 20.1161H28.4429L26.9736 24.5242H25.4295L23.9435 20.1161H25.3589L26.2181 23.5197L27.1147 20.1161Z" fill="#62F1F3"/>
</svg>
